<mxfile host="65bd71144e">
    <diagram id="6BHDI5Yu1fGclDImlAf5" name="Seite-1">
        <mxGraphModel dx="1011" dy="655" grid="1" gridSize="10" guides="1" tooltips="1" connect="1" arrows="1" fold="1" page="1" pageScale="1" pageWidth="2000" pageHeight="2000" math="0" shadow="0">
            <root>
                <mxCell id="0"/>
                <mxCell id="1" parent="0"/>
                <mxCell id="4" value="this.open()" style="rounded=0;whiteSpace=wrap;html=1;" parent="1" vertex="1">
                    <mxGeometry x="520" y="160" width="120" height="200" as="geometry"/>
                </mxCell>
                <mxCell id="6" value="" style="endArrow=classic;html=1;fillColor=#60a917;strokeColor=#2D7600;" parent="1" edge="1">
                    <mxGeometry relative="1" as="geometry">
                        <mxPoint x="520" y="180" as="sourcePoint"/>
                        <mxPoint x="240" y="180" as="targetPoint"/>
                    </mxGeometry>
                </mxCell>
                <mxCell id="7" value="port" style="edgeLabel;resizable=0;html=1;align=center;verticalAlign=middle;" parent="6" connectable="0" vertex="1">
                    <mxGeometry relative="1" as="geometry"/>
                </mxCell>
                <mxCell id="8" value="" style="endArrow=classic;html=1;fillColor=#60a917;strokeColor=#2D7600;" parent="1" edge="1">
                    <mxGeometry relative="1" as="geometry">
                        <mxPoint x="520" y="200" as="sourcePoint"/>
                        <mxPoint x="240" y="200" as="targetPoint"/>
                    </mxGeometry>
                </mxCell>
                <mxCell id="9" value="baudrate" style="edgeLabel;resizable=0;html=1;align=center;verticalAlign=middle;" parent="8" connectable="0" vertex="1">
                    <mxGeometry relative="1" as="geometry"/>
                </mxCell>
                <mxCell id="10" value="" style="endArrow=classic;html=1;fillColor=#60a917;strokeColor=#2D7600;" parent="1" edge="1">
                    <mxGeometry relative="1" as="geometry">
                        <mxPoint x="520" y="220" as="sourcePoint"/>
                        <mxPoint x="240" y="220" as="targetPoint"/>
                    </mxGeometry>
                </mxCell>
                <mxCell id="11" value="dataBits" style="edgeLabel;resizable=0;html=1;align=center;verticalAlign=middle;" parent="10" connectable="0" vertex="1">
                    <mxGeometry relative="1" as="geometry"/>
                </mxCell>
                <mxCell id="12" value="" style="endArrow=classic;html=1;fillColor=#60a917;strokeColor=#2D7600;" parent="1" edge="1">
                    <mxGeometry relative="1" as="geometry">
                        <mxPoint x="520" y="240" as="sourcePoint"/>
                        <mxPoint x="240" y="240" as="targetPoint"/>
                    </mxGeometry>
                </mxCell>
                <mxCell id="13" value="stopBits" style="edgeLabel;resizable=0;html=1;align=center;verticalAlign=middle;" parent="12" connectable="0" vertex="1">
                    <mxGeometry relative="1" as="geometry"/>
                </mxCell>
                <mxCell id="14" value="" style="endArrow=classic;html=1;fillColor=#60a917;strokeColor=#2D7600;" parent="1" edge="1">
                    <mxGeometry relative="1" as="geometry">
                        <mxPoint x="520" y="259.80000000000007" as="sourcePoint"/>
                        <mxPoint x="240" y="259.80000000000007" as="targetPoint"/>
                    </mxGeometry>
                </mxCell>
                <mxCell id="15" value="parity" style="edgeLabel;resizable=0;html=1;align=center;verticalAlign=middle;" parent="14" connectable="0" vertex="1">
                    <mxGeometry relative="1" as="geometry"/>
                </mxCell>
                <mxCell id="16" value="" style="endArrow=classic;html=1;fillColor=#60a917;strokeColor=#2D7600;" parent="1" edge="1">
                    <mxGeometry relative="1" as="geometry">
                        <mxPoint x="520" y="280" as="sourcePoint"/>
                        <mxPoint x="240" y="280" as="targetPoint"/>
                    </mxGeometry>
                </mxCell>
                <mxCell id="17" value="timeout" style="edgeLabel;resizable=0;html=1;align=center;verticalAlign=middle;" parent="16" connectable="0" vertex="1">
                    <mxGeometry relative="1" as="geometry"/>
                </mxCell>
                <mxCell id="18" value="" style="endArrow=classic;html=1;fillColor=#60a917;strokeColor=#2D7600;" parent="1" edge="1">
                    <mxGeometry relative="1" as="geometry">
                        <mxPoint x="520" y="300" as="sourcePoint"/>
                        <mxPoint x="240" y="300" as="targetPoint"/>
                    </mxGeometry>
                </mxCell>
                <mxCell id="19" value="timeoutBetween" style="edgeLabel;resizable=0;html=1;align=center;verticalAlign=middle;" parent="18" connectable="0" vertex="1">
                    <mxGeometry relative="1" as="geometry"/>
                </mxCell>
                <mxCell id="20" value="" style="endArrow=classic;html=1;fillColor=#1ba1e2;strokeColor=#006EAF;" parent="1" edge="1">
                    <mxGeometry relative="1" as="geometry">
                        <mxPoint x="240" y="340" as="sourcePoint"/>
                        <mxPoint x="520" y="340" as="targetPoint"/>
                    </mxGeometry>
                </mxCell>
                <mxCell id="21" value="hSerialPort" style="edgeLabel;resizable=0;html=1;align=center;verticalAlign=middle;" parent="20" connectable="0" vertex="1">
                    <mxGeometry relative="1" as="geometry"/>
                </mxCell>
                <mxCell id="22" value="this.close()" style="rounded=0;whiteSpace=wrap;html=1;" parent="1" vertex="1">
                    <mxGeometry x="520" y="380" width="120" height="80" as="geometry"/>
                </mxCell>
                <mxCell id="23" value="" style="endArrow=classic;html=1;fillColor=#60a917;strokeColor=#2D7600;" parent="1" edge="1">
                    <mxGeometry relative="1" as="geometry">
                        <mxPoint x="520" y="399.66" as="sourcePoint"/>
                        <mxPoint x="240" y="399.66" as="targetPoint"/>
                    </mxGeometry>
                </mxCell>
                <mxCell id="24" value="hSerialPort" style="edgeLabel;resizable=0;html=1;align=center;verticalAlign=middle;" parent="23" connectable="0" vertex="1">
                    <mxGeometry relative="1" as="geometry"/>
                </mxCell>
                <mxCell id="25" value="this.read()" style="rounded=0;whiteSpace=wrap;html=1;" parent="1" vertex="1">
                    <mxGeometry x="520" y="480" width="120" height="180" as="geometry"/>
                </mxCell>
                <mxCell id="26" value="" style="endArrow=classic;html=1;fillColor=#60a917;strokeColor=#2D7600;" parent="1" edge="1">
                    <mxGeometry relative="1" as="geometry">
                        <mxPoint x="520" y="499.55999999999995" as="sourcePoint"/>
                        <mxPoint x="240" y="499.55999999999995" as="targetPoint"/>
                    </mxGeometry>
                </mxCell>
                <mxCell id="27" value="hSerialPort" style="edgeLabel;resizable=0;html=1;align=center;verticalAlign=middle;" parent="26" connectable="0" vertex="1">
                    <mxGeometry relative="1" as="geometry"/>
                </mxCell>
                <mxCell id="28" value="" style="endArrow=classic;html=1;startArrow=classic;startFill=1;fillColor=#f0a30a;strokeColor=#BD7000;" parent="1" edge="1">
                    <mxGeometry relative="1" as="geometry">
                        <mxPoint x="520" y="519.56" as="sourcePoint"/>
                        <mxPoint x="240" y="519.56" as="targetPoint"/>
                    </mxGeometry>
                </mxCell>
                <mxCell id="29" value="buffer" style="edgeLabel;resizable=0;html=1;align=center;verticalAlign=middle;" parent="28" connectable="0" vertex="1">
                    <mxGeometry relative="1" as="geometry"/>
                </mxCell>
                <mxCell id="30" value="" style="endArrow=classic;html=1;fillColor=#60a917;strokeColor=#2D7600;" parent="1" edge="1">
                    <mxGeometry relative="1" as="geometry">
                        <mxPoint x="520" y="539.76" as="sourcePoint"/>
                        <mxPoint x="240" y="539.76" as="targetPoint"/>
                    </mxGeometry>
                </mxCell>
                <mxCell id="31" value="bytesToRead" style="edgeLabel;resizable=0;html=1;align=center;verticalAlign=middle;" parent="30" connectable="0" vertex="1">
                    <mxGeometry relative="1" as="geometry"/>
                </mxCell>
                <mxCell id="32" value="" style="endArrow=classic;html=1;startArrow=classic;startFill=1;fillColor=#f0a30a;strokeColor=#BD7000;" parent="1" edge="1">
                    <mxGeometry relative="1" as="geometry">
                        <mxPoint x="520" y="559.76" as="sourcePoint"/>
                        <mxPoint x="240" y="559.76" as="targetPoint"/>
                    </mxGeometry>
                </mxCell>
                <mxCell id="33" value="bytesRead" style="edgeLabel;resizable=0;html=1;align=center;verticalAlign=middle;" parent="32" connectable="0" vertex="1">
                    <mxGeometry relative="1" as="geometry"/>
                </mxCell>
                <mxCell id="34" value="" style="endArrow=classic;html=1;fillColor=#1ba1e2;strokeColor=#006EAF;" parent="1" edge="1">
                    <mxGeometry relative="1" as="geometry">
                        <mxPoint x="240" y="639.76" as="sourcePoint"/>
                        <mxPoint x="520" y="639.76" as="targetPoint"/>
                    </mxGeometry>
                </mxCell>
                <mxCell id="35" value="success" style="edgeLabel;resizable=0;html=1;align=center;verticalAlign=middle;" parent="34" connectable="0" vertex="1">
                    <mxGeometry relative="1" as="geometry"/>
                </mxCell>
                <mxCell id="36" value="this.readUntil()" style="rounded=0;whiteSpace=wrap;html=1;" parent="1" vertex="1">
                    <mxGeometry x="520" y="680" width="120" height="180" as="geometry"/>
                </mxCell>
                <mxCell id="37" value="" style="endArrow=classic;html=1;fillColor=#60a917;strokeColor=#2D7600;" parent="1" edge="1">
                    <mxGeometry relative="1" as="geometry">
                        <mxPoint x="520" y="699" as="sourcePoint"/>
                        <mxPoint x="240" y="699" as="targetPoint"/>
                    </mxGeometry>
                </mxCell>
                <mxCell id="38" value="hSerialPort" style="edgeLabel;resizable=0;html=1;align=center;verticalAlign=middle;" parent="37" connectable="0" vertex="1">
                    <mxGeometry relative="1" as="geometry"/>
                </mxCell>
                <mxCell id="39" value="" style="endArrow=classic;html=1;startArrow=classic;startFill=1;fillColor=#f0a30a;strokeColor=#BD7000;" parent="1" edge="1">
                    <mxGeometry relative="1" as="geometry">
                        <mxPoint x="520" y="719" as="sourcePoint"/>
                        <mxPoint x="240" y="719" as="targetPoint"/>
                    </mxGeometry>
                </mxCell>
                <mxCell id="40" value="buffer" style="edgeLabel;resizable=0;html=1;align=center;verticalAlign=middle;" parent="39" connectable="0" vertex="1">
                    <mxGeometry relative="1" as="geometry"/>
                </mxCell>
                <mxCell id="41" value="" style="endArrow=classic;html=1;fillColor=#60a917;strokeColor=#2D7600;" parent="1" edge="1">
                    <mxGeometry relative="1" as="geometry">
                        <mxPoint x="520" y="739" as="sourcePoint"/>
                        <mxPoint x="240" y="739" as="targetPoint"/>
                    </mxGeometry>
                </mxCell>
                <mxCell id="42" value="bytesToRead" style="edgeLabel;resizable=0;html=1;align=center;verticalAlign=middle;" parent="41" connectable="0" vertex="1">
                    <mxGeometry relative="1" as="geometry"/>
                </mxCell>
                <mxCell id="43" value="" style="endArrow=classic;html=1;startArrow=classic;startFill=1;fillColor=#f0a30a;strokeColor=#BD7000;" parent="1" edge="1">
                    <mxGeometry relative="1" as="geometry">
                        <mxPoint x="520" y="759" as="sourcePoint"/>
                        <mxPoint x="240" y="759" as="targetPoint"/>
                    </mxGeometry>
                </mxCell>
                <mxCell id="44" value="bytesRead" style="edgeLabel;resizable=0;html=1;align=center;verticalAlign=middle;" parent="43" connectable="0" vertex="1">
                    <mxGeometry relative="1" as="geometry"/>
                </mxCell>
                <mxCell id="45" value="" style="endArrow=classic;html=1;fillColor=#1ba1e2;strokeColor=#006EAF;" parent="1" edge="1">
                    <mxGeometry relative="1" as="geometry">
                        <mxPoint x="240" y="840" as="sourcePoint"/>
                        <mxPoint x="520" y="840" as="targetPoint"/>
                    </mxGeometry>
                </mxCell>
                <mxCell id="46" value="success" style="edgeLabel;resizable=0;html=1;align=center;verticalAlign=middle;" parent="45" connectable="0" vertex="1">
                    <mxGeometry relative="1" as="geometry"/>
                </mxCell>
                <mxCell id="47" value="" style="endArrow=classic;html=1;fillColor=#60a917;strokeColor=#2D7600;" parent="1" edge="1">
                    <mxGeometry relative="1" as="geometry">
                        <mxPoint x="520" y="579.76" as="sourcePoint"/>
                        <mxPoint x="240" y="579.76" as="targetPoint"/>
                    </mxGeometry>
                </mxCell>
                <mxCell id="48" value="timeout" style="edgeLabel;resizable=0;html=1;align=center;verticalAlign=middle;" parent="47" connectable="0" vertex="1">
                    <mxGeometry relative="1" as="geometry"/>
                </mxCell>
                <mxCell id="49" value="" style="endArrow=classic;html=1;fillColor=#60a917;strokeColor=#2D7600;" parent="1" edge="1">
                    <mxGeometry relative="1" as="geometry">
                        <mxPoint x="520" y="599.76" as="sourcePoint"/>
                        <mxPoint x="240" y="599.76" as="targetPoint"/>
                    </mxGeometry>
                </mxCell>
                <mxCell id="50" value="timeoutBetween" style="edgeLabel;resizable=0;html=1;align=center;verticalAlign=middle;" parent="49" connectable="0" vertex="1">
                    <mxGeometry relative="1" as="geometry"/>
                </mxCell>
                <mxCell id="55" value="" style="endArrow=classic;html=1;fillColor=#1ba1e2;strokeColor=#006EAF;" parent="1" edge="1">
                    <mxGeometry relative="1" as="geometry">
                        <mxPoint x="240" y="440" as="sourcePoint"/>
                        <mxPoint x="520" y="440" as="targetPoint"/>
                    </mxGeometry>
                </mxCell>
                <mxCell id="56" value="success" style="edgeLabel;resizable=0;html=1;align=center;verticalAlign=middle;" parent="55" connectable="0" vertex="1">
                    <mxGeometry relative="1" as="geometry"/>
                </mxCell>
                <mxCell id="57" value="CloseHandel()" style="rounded=0;whiteSpace=wrap;html=1;" parent="1" vertex="1">
                    <mxGeometry x="120" y="380" width="120" height="80" as="geometry"/>
                </mxCell>
                <mxCell id="59" value="CreateFile()" style="rounded=0;whiteSpace=wrap;html=1;" parent="1" vertex="1">
                    <mxGeometry x="120" y="160" width="120" height="200" as="geometry"/>
                </mxCell>
                <mxCell id="60" value="ReadFile()" style="rounded=0;whiteSpace=wrap;html=1;" parent="1" vertex="1">
                    <mxGeometry x="120" y="480" width="120" height="380" as="geometry"/>
                </mxCell>
                <mxCell id="61" value="" style="endArrow=classic;html=1;fillColor=#60a917;strokeColor=#2D7600;" parent="1" edge="1">
                    <mxGeometry relative="1" as="geometry">
                        <mxPoint x="520.0000000000002" y="780" as="sourcePoint"/>
                        <mxPoint x="240" y="780" as="targetPoint"/>
                    </mxGeometry>
                </mxCell>
                <mxCell id="62" value="timeout" style="edgeLabel;resizable=0;html=1;align=center;verticalAlign=middle;" parent="61" connectable="0" vertex="1">
                    <mxGeometry relative="1" as="geometry"/>
                </mxCell>
                <mxCell id="63" value="" style="endArrow=classic;html=1;fillColor=#60a917;strokeColor=#2D7600;" parent="1" edge="1">
                    <mxGeometry relative="1" as="geometry">
                        <mxPoint x="520.0000000000002" y="800" as="sourcePoint"/>
                        <mxPoint x="240" y="800" as="targetPoint"/>
                    </mxGeometry>
                </mxCell>
                <mxCell id="64" value="timeoutBetween" style="edgeLabel;resizable=0;html=1;align=center;verticalAlign=middle;" parent="63" connectable="0" vertex="1">
                    <mxGeometry relative="1" as="geometry"/>
                </mxCell>
                <mxCell id="65" value="this.write()" style="rounded=0;whiteSpace=wrap;html=1;" parent="1" vertex="1">
                    <mxGeometry x="520" y="880" width="120" height="180" as="geometry"/>
                </mxCell>
                <mxCell id="66" value="" style="endArrow=classic;html=1;fillColor=#60a917;strokeColor=#2D7600;" parent="1" edge="1">
                    <mxGeometry relative="1" as="geometry">
                        <mxPoint x="520.0000000000002" y="900" as="sourcePoint"/>
                        <mxPoint x="240" y="900" as="targetPoint"/>
                    </mxGeometry>
                </mxCell>
                <mxCell id="67" value="hSerialPort" style="edgeLabel;resizable=0;html=1;align=center;verticalAlign=middle;" parent="66" connectable="0" vertex="1">
                    <mxGeometry relative="1" as="geometry"/>
                </mxCell>
                <mxCell id="68" value="WriteFile()" style="rounded=0;whiteSpace=wrap;html=1;" parent="1" vertex="1">
                    <mxGeometry x="120" y="880" width="120" height="180" as="geometry"/>
                </mxCell>
                <mxCell id="69" value="" style="endArrow=classic;html=1;startArrow=none;startFill=0;endFill=1;fillColor=#60a917;strokeColor=#2D7600;" parent="1" edge="1">
                    <mxGeometry relative="1" as="geometry">
                        <mxPoint x="520.0000000000002" y="920" as="sourcePoint"/>
                        <mxPoint x="240" y="920" as="targetPoint"/>
                    </mxGeometry>
                </mxCell>
                <mxCell id="70" value="buffer" style="edgeLabel;resizable=0;html=1;align=center;verticalAlign=middle;" parent="69" connectable="0" vertex="1">
                    <mxGeometry relative="1" as="geometry"/>
                </mxCell>
                <mxCell id="71" value="" style="endArrow=classic;html=1;fillColor=#60a917;strokeColor=#2D7600;" parent="1" edge="1">
                    <mxGeometry relative="1" as="geometry">
                        <mxPoint x="520.0000000000002" y="940" as="sourcePoint"/>
                        <mxPoint x="240" y="940" as="targetPoint"/>
                    </mxGeometry>
                </mxCell>
                <mxCell id="72" value="bytesToWrite" style="edgeLabel;resizable=0;html=1;align=center;verticalAlign=middle;" parent="71" connectable="0" vertex="1">
                    <mxGeometry relative="1" as="geometry"/>
                </mxCell>
                <mxCell id="73" value="" style="endArrow=classic;html=1;startArrow=classic;startFill=1;fillColor=#f0a30a;strokeColor=#BD7000;" parent="1" edge="1">
                    <mxGeometry relative="1" as="geometry">
                        <mxPoint x="520.0000000000002" y="960" as="sourcePoint"/>
                        <mxPoint x="240" y="960" as="targetPoint"/>
                    </mxGeometry>
                </mxCell>
                <mxCell id="74" value="bytesWritten" style="edgeLabel;resizable=0;html=1;align=center;verticalAlign=middle;" parent="73" connectable="0" vertex="1">
                    <mxGeometry relative="1" as="geometry"/>
                </mxCell>
                <mxCell id="75" value="" style="endArrow=classic;html=1;fillColor=#1ba1e2;strokeColor=#006EAF;" parent="1" edge="1">
                    <mxGeometry relative="1" as="geometry">
                        <mxPoint x="240" y="1039.9999999999998" as="sourcePoint"/>
                        <mxPoint x="520.0000000000002" y="1039.9999999999998" as="targetPoint"/>
                    </mxGeometry>
                </mxCell>
                <mxCell id="76" value="success" style="edgeLabel;resizable=0;html=1;align=center;verticalAlign=middle;" parent="75" connectable="0" vertex="1">
                    <mxGeometry relative="1" as="geometry"/>
                </mxCell>
                <mxCell id="77" value="this.clearBufferIn()" style="rounded=0;whiteSpace=wrap;html=1;" parent="1" vertex="1">
                    <mxGeometry x="520" y="1080" width="120" height="80" as="geometry"/>
                </mxCell>
                <mxCell id="78" value="PurgeComm()" style="rounded=0;whiteSpace=wrap;html=1;" parent="1" vertex="1">
                    <mxGeometry x="120" y="1080" width="120" height="180" as="geometry"/>
                </mxCell>
                <mxCell id="79" value="" style="endArrow=classic;html=1;fillColor=#60a917;strokeColor=#2D7600;" parent="1" edge="1">
                    <mxGeometry relative="1" as="geometry">
                        <mxPoint x="520.0000000000002" y="1099.9999999999998" as="sourcePoint"/>
                        <mxPoint x="240" y="1099.9999999999998" as="targetPoint"/>
                    </mxGeometry>
                </mxCell>
                <mxCell id="80" value="hSerialPort" style="edgeLabel;resizable=0;html=1;align=center;verticalAlign=middle;" parent="79" connectable="0" vertex="1">
                    <mxGeometry relative="1" as="geometry"/>
                </mxCell>
                <mxCell id="81" value="" style="endArrow=classic;html=1;fillColor=#1ba1e2;strokeColor=#006EAF;" parent="1" edge="1">
                    <mxGeometry relative="1" as="geometry">
                        <mxPoint x="240" y="1139.9999999999998" as="sourcePoint"/>
                        <mxPoint x="520.0000000000002" y="1139.9999999999998" as="targetPoint"/>
                    </mxGeometry>
                </mxCell>
                <mxCell id="82" value="success" style="edgeLabel;resizable=0;html=1;align=center;verticalAlign=middle;" parent="81" connectable="0" vertex="1">
                    <mxGeometry relative="1" as="geometry"/>
                </mxCell>
                <mxCell id="85" value="" style="endArrow=classic;html=1;fillColor=#60a917;strokeColor=#2D7600;" parent="1" edge="1">
                    <mxGeometry relative="1" as="geometry">
                        <mxPoint x="520.0000000000002" y="1199.9999999999998" as="sourcePoint"/>
                        <mxPoint x="240" y="1199.9999999999998" as="targetPoint"/>
                    </mxGeometry>
                </mxCell>
                <mxCell id="86" value="hSerialPort" style="edgeLabel;resizable=0;html=1;align=center;verticalAlign=middle;" parent="85" connectable="0" vertex="1">
                    <mxGeometry relative="1" as="geometry"/>
                </mxCell>
                <mxCell id="87" value="this.clearBufferOut()" style="rounded=0;whiteSpace=wrap;html=1;" parent="1" vertex="1">
                    <mxGeometry x="520" y="1180" width="120" height="80" as="geometry"/>
                </mxCell>
                <mxCell id="88" value="" style="endArrow=classic;html=1;fillColor=#1ba1e2;strokeColor=#006EAF;" parent="1" edge="1">
                    <mxGeometry relative="1" as="geometry">
                        <mxPoint x="240" y="1239.9999999999998" as="sourcePoint"/>
                        <mxPoint x="520.0000000000002" y="1239.9999999999998" as="targetPoint"/>
                    </mxGeometry>
                </mxCell>
                <mxCell id="89" value="success" style="edgeLabel;resizable=0;html=1;align=center;verticalAlign=middle;" parent="88" connectable="0" vertex="1">
                    <mxGeometry relative="1" as="geometry"/>
                </mxCell>
                <mxCell id="90" value="Serial.list()" style="rounded=0;whiteSpace=wrap;html=1;" parent="1" vertex="1">
                    <mxGeometry x="520" y="1480" width="120" height="80" as="geometry"/>
                </mxCell>
                <mxCell id="91" value="?" style="rounded=0;whiteSpace=wrap;html=1;" parent="1" vertex="1">
                    <mxGeometry x="120" y="1480" width="120" height="80" as="geometry"/>
                </mxCell>
                <mxCell id="92" value="" style="endArrow=classic;html=1;fillColor=#1ba1e2;strokeColor=#006EAF;" parent="1" edge="1">
                    <mxGeometry relative="1" as="geometry">
                        <mxPoint x="240" y="1539.9999999999998" as="sourcePoint"/>
                        <mxPoint x="520.0000000000002" y="1539.9999999999998" as="targetPoint"/>
                    </mxGeometry>
                </mxCell>
                <mxCell id="93" value="?" style="edgeLabel;resizable=0;html=1;align=center;verticalAlign=middle;" parent="92" connectable="0" vertex="1">
                    <mxGeometry relative="1" as="geometry"/>
                </mxCell>
                <mxCell id="94" value="" style="endArrow=classic;html=1;fillColor=#60a917;strokeColor=#2D7600;" parent="1" edge="1">
                    <mxGeometry relative="1" as="geometry">
                        <mxPoint x="520.0000000000002" y="1499.9999999999998" as="sourcePoint"/>
                        <mxPoint x="240" y="1499.9999999999998" as="targetPoint"/>
                        <Array as="points">
                            <mxPoint x="380" y="1500"/>
                        </Array>
                    </mxGeometry>
                </mxCell>
                <mxCell id="95" value="?" style="edgeLabel;resizable=0;html=1;align=center;verticalAlign=middle;" parent="94" connectable="0" vertex="1">
                    <mxGeometry relative="1" as="geometry"/>
                </mxCell>
                <mxCell id="96" value="?" style="rounded=0;whiteSpace=wrap;html=1;" parent="1" vertex="1">
                    <mxGeometry x="120" y="1580" width="120" height="80" as="geometry"/>
                </mxCell>
                <mxCell id="97" value="this.bufferInSize" style="rounded=0;whiteSpace=wrap;html=1;" parent="1" vertex="1">
                    <mxGeometry x="520" y="1580" width="120" height="80" as="geometry"/>
                </mxCell>
                <mxCell id="98" value="this.bufferOutSize" style="rounded=0;whiteSpace=wrap;html=1;" parent="1" vertex="1">
                    <mxGeometry x="520" y="1680" width="120" height="80" as="geometry"/>
                </mxCell>
                <mxCell id="99" value="" style="endArrow=classic;html=1;fillColor=#60a917;strokeColor=#2D7600;" parent="1" edge="1">
                    <mxGeometry relative="1" as="geometry">
                        <mxPoint x="520.0000000000002" y="1599.9999999999998" as="sourcePoint"/>
                        <mxPoint x="240" y="1599.9999999999998" as="targetPoint"/>
                    </mxGeometry>
                </mxCell>
                <mxCell id="100" value="?" style="edgeLabel;resizable=0;html=1;align=center;verticalAlign=middle;" parent="99" connectable="0" vertex="1">
                    <mxGeometry relative="1" as="geometry"/>
                </mxCell>
                <mxCell id="101" value="" style="endArrow=classic;html=1;fillColor=#1ba1e2;strokeColor=#006EAF;" parent="1" edge="1">
                    <mxGeometry relative="1" as="geometry">
                        <mxPoint x="240" y="1639.9999999999998" as="sourcePoint"/>
                        <mxPoint x="520.0000000000002" y="1639.9999999999998" as="targetPoint"/>
                    </mxGeometry>
                </mxCell>
                <mxCell id="102" value="bufferSize" style="edgeLabel;resizable=0;html=1;align=center;verticalAlign=middle;" parent="101" connectable="0" vertex="1">
                    <mxGeometry relative="1" as="geometry"/>
                </mxCell>
                <mxCell id="103" value="" style="endArrow=classic;html=1;fillColor=#60a917;strokeColor=#2D7600;" parent="1" edge="1">
                    <mxGeometry relative="1" as="geometry">
                        <mxPoint x="520.0000000000002" y="1699.7599999999998" as="sourcePoint"/>
                        <mxPoint x="240" y="1699.7599999999998" as="targetPoint"/>
                    </mxGeometry>
                </mxCell>
                <mxCell id="104" value="?" style="edgeLabel;resizable=0;html=1;align=center;verticalAlign=middle;" parent="103" connectable="0" vertex="1">
                    <mxGeometry relative="1" as="geometry"/>
                </mxCell>
                <mxCell id="105" value="" style="endArrow=classic;html=1;fillColor=#1ba1e2;strokeColor=#006EAF;" parent="1" edge="1">
                    <mxGeometry relative="1" as="geometry">
                        <mxPoint x="240" y="1739.7599999999998" as="sourcePoint"/>
                        <mxPoint x="520.0000000000002" y="1739.7599999999998" as="targetPoint"/>
                    </mxGeometry>
                </mxCell>
                <mxCell id="106" value="bufferSize" style="edgeLabel;resizable=0;html=1;align=center;verticalAlign=middle;" parent="105" connectable="0" vertex="1">
                    <mxGeometry relative="1" as="geometry"/>
                </mxCell>
                <mxCell id="107" value="?" style="rounded=0;whiteSpace=wrap;html=1;" parent="1" vertex="1">
                    <mxGeometry x="120" y="1680" width="120" height="80" as="geometry"/>
                </mxCell>
                <mxCell id="108" value="constructor()" style="rounded=0;whiteSpace=wrap;html=1;" parent="1" vertex="1">
                    <mxGeometry x="1240" y="160" width="120" height="200" as="geometry"/>
                </mxCell>
                <mxCell id="123" value="this" style="rounded=0;whiteSpace=wrap;html=1;" parent="1" vertex="1">
                    <mxGeometry x="840" y="160" width="200" height="200" as="geometry"/>
                </mxCell>
                <mxCell id="125" value="" style="endArrow=classic;html=1;fillColor=#60a917;strokeColor=#2D7600;" parent="1" edge="1">
                    <mxGeometry relative="1" as="geometry">
                        <mxPoint x="840" y="180" as="sourcePoint"/>
                        <mxPoint x="640" y="180" as="targetPoint"/>
                    </mxGeometry>
                </mxCell>
                <mxCell id="126" value="port" style="edgeLabel;resizable=0;html=1;align=center;verticalAlign=middle;" parent="125" connectable="0" vertex="1">
                    <mxGeometry relative="1" as="geometry"/>
                </mxCell>
                <mxCell id="127" value="" style="endArrow=classic;html=1;fillColor=#60a917;strokeColor=#2D7600;" parent="1" edge="1">
                    <mxGeometry relative="1" as="geometry">
                        <mxPoint x="840" y="200" as="sourcePoint"/>
                        <mxPoint x="640" y="200" as="targetPoint"/>
                    </mxGeometry>
                </mxCell>
                <mxCell id="128" value="baudrate" style="edgeLabel;resizable=0;html=1;align=center;verticalAlign=middle;" parent="127" connectable="0" vertex="1">
                    <mxGeometry relative="1" as="geometry"/>
                </mxCell>
                <mxCell id="129" value="" style="endArrow=classic;html=1;fillColor=#60a917;strokeColor=#2D7600;" parent="1" edge="1">
                    <mxGeometry relative="1" as="geometry">
                        <mxPoint x="840" y="220" as="sourcePoint"/>
                        <mxPoint x="640" y="220" as="targetPoint"/>
                    </mxGeometry>
                </mxCell>
                <mxCell id="130" value="dataBits" style="edgeLabel;resizable=0;html=1;align=center;verticalAlign=middle;" parent="129" connectable="0" vertex="1">
                    <mxGeometry relative="1" as="geometry"/>
                </mxCell>
                <mxCell id="131" value="" style="endArrow=classic;html=1;fillColor=#60a917;strokeColor=#2D7600;" parent="1" edge="1">
                    <mxGeometry relative="1" as="geometry">
                        <mxPoint x="840" y="240" as="sourcePoint"/>
                        <mxPoint x="640" y="240" as="targetPoint"/>
                    </mxGeometry>
                </mxCell>
                <mxCell id="132" value="stopBits" style="edgeLabel;resizable=0;html=1;align=center;verticalAlign=middle;" parent="131" connectable="0" vertex="1">
                    <mxGeometry relative="1" as="geometry"/>
                </mxCell>
                <mxCell id="133" value="" style="endArrow=classic;html=1;fillColor=#60a917;strokeColor=#2D7600;" parent="1" edge="1">
                    <mxGeometry relative="1" as="geometry">
                        <mxPoint x="840" y="260" as="sourcePoint"/>
                        <mxPoint x="640" y="259.80000000000007" as="targetPoint"/>
                    </mxGeometry>
                </mxCell>
                <mxCell id="134" value="parity" style="edgeLabel;resizable=0;html=1;align=center;verticalAlign=middle;" parent="133" connectable="0" vertex="1">
                    <mxGeometry relative="1" as="geometry"/>
                </mxCell>
                <mxCell id="135" value="" style="endArrow=classic;html=1;fillColor=#60a917;strokeColor=#2D7600;" parent="1" edge="1">
                    <mxGeometry relative="1" as="geometry">
                        <mxPoint x="840" y="280" as="sourcePoint"/>
                        <mxPoint x="640" y="280" as="targetPoint"/>
                    </mxGeometry>
                </mxCell>
                <mxCell id="136" value="timeout" style="edgeLabel;resizable=0;html=1;align=center;verticalAlign=middle;" parent="135" connectable="0" vertex="1">
                    <mxGeometry relative="1" as="geometry"/>
                </mxCell>
                <mxCell id="137" value="" style="endArrow=classic;html=1;fillColor=#60a917;strokeColor=#2D7600;" parent="1" edge="1">
                    <mxGeometry relative="1" as="geometry">
                        <mxPoint x="840" y="300" as="sourcePoint"/>
                        <mxPoint x="640" y="300" as="targetPoint"/>
                    </mxGeometry>
                </mxCell>
                <mxCell id="138" value="timeoutBetween" style="edgeLabel;resizable=0;html=1;align=center;verticalAlign=middle;" parent="137" connectable="0" vertex="1">
                    <mxGeometry relative="1" as="geometry"/>
                </mxCell>
                <mxCell id="139" value="" style="endArrow=classic;html=1;fillColor=#1ba1e2;strokeColor=#006EAF;" parent="1" edge="1">
                    <mxGeometry relative="1" as="geometry">
                        <mxPoint x="640" y="340" as="sourcePoint"/>
                        <mxPoint x="840" y="340" as="targetPoint"/>
                    </mxGeometry>
                </mxCell>
                <mxCell id="140" value="hSerialPort" style="edgeLabel;resizable=0;html=1;align=center;verticalAlign=middle;" parent="139" connectable="0" vertex="1">
                    <mxGeometry relative="1" as="geometry"/>
                </mxCell>
                <mxCell id="141" value="" style="endArrow=classic;html=1;fillColor=#60a917;strokeColor=#2D7600;" parent="1" edge="1">
                    <mxGeometry relative="1" as="geometry">
                        <mxPoint x="860" y="360" as="sourcePoint"/>
                        <mxPoint x="640" y="400" as="targetPoint"/>
                        <Array as="points">
                            <mxPoint x="860" y="400"/>
                        </Array>
                    </mxGeometry>
                </mxCell>
                <mxCell id="142" value="hSerialPort" style="edgeLabel;resizable=0;html=1;align=center;verticalAlign=middle;" parent="141" connectable="0" vertex="1">
                    <mxGeometry relative="1" as="geometry">
                        <mxPoint x="-20" as="offset"/>
                    </mxGeometry>
                </mxCell>
                <mxCell id="143" value="" style="endArrow=classic;html=1;fillColor=#60a917;strokeColor=#2D7600;" parent="1" edge="1">
                    <mxGeometry relative="1" as="geometry">
                        <mxPoint x="860" y="390" as="sourcePoint"/>
                        <mxPoint x="640" y="500" as="targetPoint"/>
                        <Array as="points">
                            <mxPoint x="860" y="500"/>
                        </Array>
                    </mxGeometry>
                </mxCell>
                <mxCell id="144" value="hSerialPort" style="edgeLabel;resizable=0;html=1;align=center;verticalAlign=middle;" parent="143" connectable="0" vertex="1">
                    <mxGeometry relative="1" as="geometry">
                        <mxPoint x="-55" as="offset"/>
                    </mxGeometry>
                </mxCell>
                <mxCell id="145" value="" style="endArrow=classic;html=1;fillColor=#60a917;strokeColor=#2D7600;" parent="1" edge="1">
                    <mxGeometry relative="1" as="geometry">
                        <mxPoint x="880" y="360" as="sourcePoint"/>
                        <mxPoint x="640" y="580" as="targetPoint"/>
                        <Array as="points">
                            <mxPoint x="880" y="580"/>
                        </Array>
                    </mxGeometry>
                </mxCell>
                <mxCell id="146" value="timeout" style="edgeLabel;resizable=0;html=1;align=center;verticalAlign=middle;" parent="145" connectable="0" vertex="1">
                    <mxGeometry relative="1" as="geometry">
                        <mxPoint x="-110" as="offset"/>
                    </mxGeometry>
                </mxCell>
                <mxCell id="147" value="" style="endArrow=classic;html=1;fillColor=#60a917;strokeColor=#2D7600;" parent="1" edge="1">
                    <mxGeometry relative="1" as="geometry">
                        <mxPoint x="900" y="360" as="sourcePoint"/>
                        <mxPoint x="640" y="600" as="targetPoint"/>
                        <Array as="points">
                            <mxPoint x="900" y="600"/>
                        </Array>
                    </mxGeometry>
                </mxCell>
                <mxCell id="148" value="timeoutBetween" style="edgeLabel;resizable=0;html=1;align=center;verticalAlign=middle;" parent="147" connectable="0" vertex="1">
                    <mxGeometry relative="1" as="geometry">
                        <mxPoint x="-110" as="offset"/>
                    </mxGeometry>
                </mxCell>
                <mxCell id="149" value="" style="endArrow=classic;html=1;fillColor=#60a917;strokeColor=#2D7600;" parent="1" edge="1">
                    <mxGeometry relative="1" as="geometry">
                        <mxPoint x="860" y="490" as="sourcePoint"/>
                        <mxPoint x="640" y="700" as="targetPoint"/>
                        <Array as="points">
                            <mxPoint x="860" y="700"/>
                        </Array>
                    </mxGeometry>
                </mxCell>
                <mxCell id="150" value="hSerialPort" style="edgeLabel;resizable=0;html=1;align=center;verticalAlign=middle;" parent="149" connectable="0" vertex="1">
                    <mxGeometry relative="1" as="geometry">
                        <mxPoint x="-105" as="offset"/>
                    </mxGeometry>
                </mxCell>
                <mxCell id="151" value="" style="endArrow=classic;html=1;fillColor=#60a917;strokeColor=#2D7600;" parent="1" edge="1">
                    <mxGeometry relative="1" as="geometry">
                        <mxPoint x="880" y="570" as="sourcePoint"/>
                        <mxPoint x="640" y="780" as="targetPoint"/>
                        <Array as="points">
                            <mxPoint x="880" y="780"/>
                        </Array>
                    </mxGeometry>
                </mxCell>
                <mxCell id="152" value="timeout" style="edgeLabel;resizable=0;html=1;align=center;verticalAlign=middle;" parent="151" connectable="0" vertex="1">
                    <mxGeometry relative="1" as="geometry">
                        <mxPoint x="-110" as="offset"/>
                    </mxGeometry>
                </mxCell>
                <mxCell id="153" value="" style="endArrow=classic;html=1;fillColor=#60a917;strokeColor=#2D7600;" parent="1" edge="1">
                    <mxGeometry relative="1" as="geometry">
                        <mxPoint x="900" y="590" as="sourcePoint"/>
                        <mxPoint x="640" y="800" as="targetPoint"/>
                        <Array as="points">
                            <mxPoint x="900" y="800"/>
                        </Array>
                    </mxGeometry>
                </mxCell>
                <mxCell id="154" value="timeoutBetween" style="edgeLabel;resizable=0;html=1;align=center;verticalAlign=middle;" parent="153" connectable="0" vertex="1">
                    <mxGeometry relative="1" as="geometry">
                        <mxPoint x="-110" as="offset"/>
                    </mxGeometry>
                </mxCell>
                <mxCell id="155" value="" style="endArrow=classic;html=1;fillColor=#60a917;strokeColor=#2D7600;" parent="1" edge="1">
                    <mxGeometry relative="1" as="geometry">
                        <mxPoint x="520.0000000000002" y="1000" as="sourcePoint"/>
                        <mxPoint x="240" y="1000" as="targetPoint"/>
                    </mxGeometry>
                </mxCell>
                <mxCell id="156" value="timeoutBetween" style="edgeLabel;resizable=0;html=1;align=center;verticalAlign=middle;" parent="155" connectable="0" vertex="1">
                    <mxGeometry relative="1" as="geometry"/>
                </mxCell>
                <mxCell id="157" value="" style="endArrow=classic;html=1;fillColor=#60a917;strokeColor=#2D7600;" parent="1" edge="1">
                    <mxGeometry relative="1" as="geometry">
                        <mxPoint x="520.0000000000002" y="980" as="sourcePoint"/>
                        <mxPoint x="240" y="980" as="targetPoint"/>
                    </mxGeometry>
                </mxCell>
                <mxCell id="158" value="timeout" style="edgeLabel;resizable=0;html=1;align=center;verticalAlign=middle;" parent="157" connectable="0" vertex="1">
                    <mxGeometry relative="1" as="geometry"/>
                </mxCell>
                <mxCell id="159" value="" style="endArrow=classic;html=1;fillColor=#60a917;strokeColor=#2D7600;" parent="1" edge="1">
                    <mxGeometry relative="1" as="geometry">
                        <mxPoint x="880" y="770" as="sourcePoint"/>
                        <mxPoint x="640" y="980" as="targetPoint"/>
                        <Array as="points">
                            <mxPoint x="880" y="980"/>
                        </Array>
                    </mxGeometry>
                </mxCell>
                <mxCell id="160" value="timeout" style="edgeLabel;resizable=0;html=1;align=center;verticalAlign=middle;" parent="159" connectable="0" vertex="1">
                    <mxGeometry relative="1" as="geometry">
                        <mxPoint x="-110" as="offset"/>
                    </mxGeometry>
                </mxCell>
                <mxCell id="161" value="" style="endArrow=classic;html=1;fillColor=#60a917;strokeColor=#2D7600;" parent="1" edge="1">
                    <mxGeometry relative="1" as="geometry">
                        <mxPoint x="900" y="790" as="sourcePoint"/>
                        <mxPoint x="640" y="1000" as="targetPoint"/>
                        <Array as="points">
                            <mxPoint x="900" y="1000"/>
                        </Array>
                    </mxGeometry>
                </mxCell>
                <mxCell id="162" value="timeoutBetween" style="edgeLabel;resizable=0;html=1;align=center;verticalAlign=middle;" parent="161" connectable="0" vertex="1">
                    <mxGeometry relative="1" as="geometry">
                        <mxPoint x="-110" as="offset"/>
                    </mxGeometry>
                </mxCell>
                <mxCell id="178" value="" style="endArrow=classic;html=1;fillColor=#60a917;strokeColor=#2D7600;" parent="1" edge="1">
                    <mxGeometry relative="1" as="geometry">
                        <mxPoint x="1240" y="180" as="sourcePoint"/>
                        <mxPoint x="1040" y="180" as="targetPoint"/>
                    </mxGeometry>
                </mxCell>
                <mxCell id="179" value="port" style="edgeLabel;resizable=0;html=1;align=center;verticalAlign=middle;" parent="178" connectable="0" vertex="1">
                    <mxGeometry relative="1" as="geometry"/>
                </mxCell>
                <mxCell id="180" value="" style="endArrow=classic;html=1;fillColor=#60a917;strokeColor=#2D7600;" parent="1" edge="1">
                    <mxGeometry relative="1" as="geometry">
                        <mxPoint x="1240" y="200" as="sourcePoint"/>
                        <mxPoint x="1040" y="200" as="targetPoint"/>
                    </mxGeometry>
                </mxCell>
                <mxCell id="181" value="baudrate" style="edgeLabel;resizable=0;html=1;align=center;verticalAlign=middle;" parent="180" connectable="0" vertex="1">
                    <mxGeometry relative="1" as="geometry"/>
                </mxCell>
                <mxCell id="182" value="" style="endArrow=classic;html=1;fillColor=#60a917;strokeColor=#2D7600;" parent="1" edge="1">
                    <mxGeometry relative="1" as="geometry">
                        <mxPoint x="1240" y="220" as="sourcePoint"/>
                        <mxPoint x="1040" y="220" as="targetPoint"/>
                    </mxGeometry>
                </mxCell>
                <mxCell id="183" value="dataBits?" style="edgeLabel;resizable=0;html=1;align=center;verticalAlign=middle;" parent="182" connectable="0" vertex="1">
                    <mxGeometry relative="1" as="geometry"/>
                </mxCell>
                <mxCell id="184" value="" style="endArrow=classic;html=1;fillColor=#60a917;strokeColor=#2D7600;" parent="1" edge="1">
                    <mxGeometry relative="1" as="geometry">
                        <mxPoint x="1240" y="240" as="sourcePoint"/>
                        <mxPoint x="1040" y="240" as="targetPoint"/>
                    </mxGeometry>
                </mxCell>
                <mxCell id="185" value="stopBits?" style="edgeLabel;resizable=0;html=1;align=center;verticalAlign=middle;" parent="184" connectable="0" vertex="1">
                    <mxGeometry relative="1" as="geometry"/>
                </mxCell>
                <mxCell id="186" value="" style="endArrow=classic;html=1;fillColor=#60a917;strokeColor=#2D7600;" parent="1" edge="1">
                    <mxGeometry relative="1" as="geometry">
                        <mxPoint x="1240" y="260" as="sourcePoint"/>
                        <mxPoint x="1040" y="259.80000000000007" as="targetPoint"/>
                    </mxGeometry>
                </mxCell>
                <mxCell id="187" value="parity?" style="edgeLabel;resizable=0;html=1;align=center;verticalAlign=middle;" parent="186" connectable="0" vertex="1">
                    <mxGeometry relative="1" as="geometry"/>
                </mxCell>
                <mxCell id="188" value="" style="endArrow=classic;html=1;fillColor=#60a917;strokeColor=#2D7600;" parent="1" edge="1">
                    <mxGeometry relative="1" as="geometry">
                        <mxPoint x="1240" y="280" as="sourcePoint"/>
                        <mxPoint x="1040" y="280" as="targetPoint"/>
                    </mxGeometry>
                </mxCell>
                <mxCell id="189" value="timeout?" style="edgeLabel;resizable=0;html=1;align=center;verticalAlign=middle;" parent="188" connectable="0" vertex="1">
                    <mxGeometry relative="1" as="geometry"/>
                </mxCell>
                <mxCell id="190" value="" style="endArrow=classic;html=1;fillColor=#60a917;strokeColor=#2D7600;" parent="1" edge="1">
                    <mxGeometry relative="1" as="geometry">
                        <mxPoint x="1240" y="300" as="sourcePoint"/>
                        <mxPoint x="1040" y="300" as="targetPoint"/>
                    </mxGeometry>
                </mxCell>
                <mxCell id="191" value="timeoutBetween?" style="edgeLabel;resizable=0;html=1;align=center;verticalAlign=middle;" parent="190" connectable="0" vertex="1">
                    <mxGeometry relative="1" as="geometry"/>
                </mxCell>
                <mxCell id="192" value="TypeScript" style="rounded=0;whiteSpace=wrap;html=1;" parent="1" vertex="1">
                    <mxGeometry x="520" y="80" width="840" height="40" as="geometry"/>
                </mxCell>
                <mxCell id="193" value="this.isOpen" style="rounded=0;whiteSpace=wrap;html=1;" parent="1" vertex="1">
                    <mxGeometry x="520" y="1780" width="120" height="40" as="geometry"/>
                </mxCell>
                <mxCell id="198" value="" style="endArrow=classic;html=1;fillColor=#60a917;strokeColor=#2D7600;entryX=1;entryY=0.5;entryDx=0;entryDy=0;" parent="1" target="193" edge="1">
                    <mxGeometry relative="1" as="geometry">
                        <mxPoint x="920" y="360" as="sourcePoint"/>
                        <mxPoint x="640" y="1600" as="targetPoint"/>
                        <Array as="points">
                            <mxPoint x="920" y="1800"/>
                        </Array>
                    </mxGeometry>
                </mxCell>
                <mxCell id="199" value="isOpen" style="edgeLabel;resizable=0;html=1;align=center;verticalAlign=middle;" parent="198" connectable="0" vertex="1">
                    <mxGeometry relative="1" as="geometry">
                        <mxPoint x="-140" y="580" as="offset"/>
                    </mxGeometry>
                </mxCell>
                <mxCell id="200" value="this.port" style="rounded=0;whiteSpace=wrap;html=1;" parent="1" vertex="1">
                    <mxGeometry x="520" y="1840" width="120" height="40" as="geometry"/>
                </mxCell>
                <mxCell id="201" value="" style="endArrow=classic;html=1;fillColor=#60a917;strokeColor=#2D7600;" parent="1" edge="1">
                    <mxGeometry relative="1" as="geometry">
                        <mxPoint x="860" y="690" as="sourcePoint"/>
                        <mxPoint x="640" y="900" as="targetPoint"/>
                        <Array as="points">
                            <mxPoint x="860" y="900"/>
                        </Array>
                    </mxGeometry>
                </mxCell>
                <mxCell id="202" value="hSerialPort" style="edgeLabel;resizable=0;html=1;align=center;verticalAlign=middle;" parent="201" connectable="0" vertex="1">
                    <mxGeometry relative="1" as="geometry">
                        <mxPoint x="-105" as="offset"/>
                    </mxGeometry>
                </mxCell>
                <mxCell id="203" value="" style="endArrow=classic;html=1;fillColor=#60a917;strokeColor=#2D7600;" parent="1" edge="1">
                    <mxGeometry relative="1" as="geometry">
                        <mxPoint x="860" y="890" as="sourcePoint"/>
                        <mxPoint x="640" y="1100.0000000000002" as="targetPoint"/>
                        <Array as="points">
                            <mxPoint x="860" y="1100"/>
                        </Array>
                    </mxGeometry>
                </mxCell>
                <mxCell id="204" value="hSerialPort" style="edgeLabel;resizable=0;html=1;align=center;verticalAlign=middle;" parent="203" connectable="0" vertex="1">
                    <mxGeometry relative="1" as="geometry">
                        <mxPoint x="-105" as="offset"/>
                    </mxGeometry>
                </mxCell>
                <mxCell id="205" value="" style="endArrow=classic;html=1;fillColor=#60a917;strokeColor=#2D7600;" parent="1" edge="1">
                    <mxGeometry relative="1" as="geometry">
                        <mxPoint x="860" y="1090" as="sourcePoint"/>
                        <mxPoint x="640" y="1200" as="targetPoint"/>
                        <Array as="points">
                            <mxPoint x="860" y="1200"/>
                        </Array>
                    </mxGeometry>
                </mxCell>
                <mxCell id="206" value="hSerialPort" style="edgeLabel;resizable=0;html=1;align=center;verticalAlign=middle;" parent="205" connectable="0" vertex="1">
                    <mxGeometry relative="1" as="geometry">
                        <mxPoint x="-55" as="offset"/>
                    </mxGeometry>
                </mxCell>
                <mxCell id="207" value="" style="endArrow=classic;html=1;fillColor=#60a917;strokeColor=#2D7600;entryX=1;entryY=0.5;entryDx=0;entryDy=0;" parent="1" target="200" edge="1">
                    <mxGeometry relative="1" as="geometry">
                        <mxPoint x="940" y="360" as="sourcePoint"/>
                        <mxPoint x="670" y="1750" as="targetPoint"/>
                        <Array as="points">
                            <mxPoint x="940" y="1860"/>
                        </Array>
                    </mxGeometry>
                </mxCell>
                <mxCell id="208" value="port" style="edgeLabel;resizable=0;html=1;align=center;verticalAlign=middle;" parent="207" connectable="0" vertex="1">
                    <mxGeometry relative="1" as="geometry">
                        <mxPoint x="-150" y="600" as="offset"/>
                    </mxGeometry>
                </mxCell>
                <mxCell id="209" value="this.baudrate" style="rounded=0;whiteSpace=wrap;html=1;" parent="1" vertex="1">
                    <mxGeometry x="520" y="1900" width="120" height="40" as="geometry"/>
                </mxCell>
                <mxCell id="210" value="" style="endArrow=classic;html=1;fillColor=#60a917;strokeColor=#2D7600;entryX=1;entryY=0.5;entryDx=0;entryDy=0;" parent="1" target="209" edge="1">
                    <mxGeometry relative="1" as="geometry">
                        <mxPoint x="960" y="360" as="sourcePoint"/>
                        <mxPoint x="640" y="1720" as="targetPoint"/>
                        <Array as="points">
                            <mxPoint x="960" y="1920"/>
                        </Array>
                    </mxGeometry>
                </mxCell>
                <mxCell id="211" value="baudrate" style="edgeLabel;resizable=0;html=1;align=center;verticalAlign=middle;" parent="210" connectable="0" vertex="1">
                    <mxGeometry relative="1" as="geometry">
                        <mxPoint x="-150" y="620" as="offset"/>
                    </mxGeometry>
                </mxCell>
                <mxCell id="212" value="this.dataBits" style="rounded=0;whiteSpace=wrap;html=1;" parent="1" vertex="1">
                    <mxGeometry x="520" y="1960" width="120" height="40" as="geometry"/>
                </mxCell>
                <mxCell id="213" value="this.parity" style="rounded=0;whiteSpace=wrap;html=1;" parent="1" vertex="1">
                    <mxGeometry x="520" y="2020" width="120" height="40" as="geometry"/>
                </mxCell>
                <mxCell id="214" value="this.stopBits" style="rounded=0;whiteSpace=wrap;html=1;" parent="1" vertex="1">
                    <mxGeometry x="520" y="2080" width="120" height="40" as="geometry"/>
                </mxCell>
                <mxCell id="215" value="" style="endArrow=classic;html=1;fillColor=#60a917;strokeColor=#2D7600;entryX=1;entryY=0.5;entryDx=0;entryDy=0;" parent="1" target="212" edge="1">
                    <mxGeometry relative="1" as="geometry">
                        <mxPoint x="980" y="360" as="sourcePoint"/>
                        <mxPoint x="640" y="1780" as="targetPoint"/>
                        <Array as="points">
                            <mxPoint x="980" y="1980"/>
                        </Array>
                    </mxGeometry>
                </mxCell>
                <mxCell id="216" value="dataBits" style="edgeLabel;resizable=0;html=1;align=center;verticalAlign=middle;" parent="215" connectable="0" vertex="1">
                    <mxGeometry relative="1" as="geometry">
                        <mxPoint x="-160" y="640" as="offset"/>
                    </mxGeometry>
                </mxCell>
                <mxCell id="217" value="" style="endArrow=classic;html=1;fillColor=#60a917;strokeColor=#2D7600;entryX=1;entryY=0.5;entryDx=0;entryDy=0;" parent="1" target="213" edge="1">
                    <mxGeometry relative="1" as="geometry">
                        <mxPoint x="1000" y="360" as="sourcePoint"/>
                        <mxPoint x="640" y="1840" as="targetPoint"/>
                        <Array as="points">
                            <mxPoint x="1000" y="2040"/>
                        </Array>
                    </mxGeometry>
                </mxCell>
                <mxCell id="218" value="parity" style="edgeLabel;resizable=0;html=1;align=center;verticalAlign=middle;" parent="217" connectable="0" vertex="1">
                    <mxGeometry relative="1" as="geometry">
                        <mxPoint x="-180" y="660" as="offset"/>
                    </mxGeometry>
                </mxCell>
                <mxCell id="219" value="" style="endArrow=classic;html=1;fillColor=#60a917;strokeColor=#2D7600;entryX=1;entryY=0.5;entryDx=0;entryDy=0;" parent="1" target="214" edge="1">
                    <mxGeometry relative="1" as="geometry">
                        <mxPoint x="1020" y="360" as="sourcePoint"/>
                        <mxPoint x="660" y="2050" as="targetPoint"/>
                        <Array as="points">
                            <mxPoint x="1020" y="2100"/>
                        </Array>
                    </mxGeometry>
                </mxCell>
                <mxCell id="220" value="stopBits" style="edgeLabel;resizable=0;html=1;align=center;verticalAlign=middle;" parent="219" connectable="0" vertex="1">
                    <mxGeometry relative="1" as="geometry">
                        <mxPoint x="-190" y="680" as="offset"/>
                    </mxGeometry>
                </mxCell>
                <mxCell id="222" value="" style="endArrow=classic;html=1;fillColor=#60a917;strokeColor=#2D7600;entryX=1;entryY=0.25;entryDx=0;entryDy=0;" parent="1" target="97" edge="1">
                    <mxGeometry relative="1" as="geometry">
                        <mxPoint x="860" y="1390" as="sourcePoint"/>
                        <mxPoint x="640.0000000000002" y="1399.9999999999998" as="targetPoint"/>
                        <Array as="points">
                            <mxPoint x="860" y="1600"/>
                        </Array>
                    </mxGeometry>
                </mxCell>
                <mxCell id="223" value="hSerialPort" style="edgeLabel;resizable=0;html=1;align=center;verticalAlign=middle;" parent="222" connectable="0" vertex="1">
                    <mxGeometry relative="1" as="geometry">
                        <mxPoint x="-110" y="95" as="offset"/>
                    </mxGeometry>
                </mxCell>
                <mxCell id="224" value="" style="endArrow=classic;html=1;fillColor=#60a917;strokeColor=#2D7600;entryX=1;entryY=0.25;entryDx=0;entryDy=0;" parent="1" target="98" edge="1">
                    <mxGeometry relative="1" as="geometry">
                        <mxPoint x="860" y="1590" as="sourcePoint"/>
                        <mxPoint x="640.0000000000002" y="1659.9999999999998" as="targetPoint"/>
                        <Array as="points">
                            <mxPoint x="860" y="1700"/>
                        </Array>
                    </mxGeometry>
                </mxCell>
                <mxCell id="225" value="hSerialPort" style="edgeLabel;resizable=0;html=1;align=center;verticalAlign=middle;" parent="224" connectable="0" vertex="1">
                    <mxGeometry relative="1" as="geometry">
                        <mxPoint x="-55" as="offset"/>
                    </mxGeometry>
                </mxCell>
                <mxCell id="226" value="C++" style="rounded=0;whiteSpace=wrap;html=1;" parent="1" vertex="1">
                    <mxGeometry x="120" y="80" width="120" height="40" as="geometry"/>
                </mxCell>
                <mxCell id="227" value="this&lt;br&gt;.addEventListener()" style="rounded=0;whiteSpace=wrap;html=1;" parent="1" vertex="1">
                    <mxGeometry x="520" y="1280" width="120" height="80" as="geometry"/>
                </mxCell>
                <mxCell id="228" value="this.&lt;br&gt;remove&lt;br&gt;EventListener()" style="rounded=0;whiteSpace=wrap;html=1;" parent="1" vertex="1">
                    <mxGeometry x="520" y="1380" width="120" height="80" as="geometry"/>
                </mxCell>
                <mxCell id="229" value="WaitCommEvent" style="rounded=0;whiteSpace=wrap;html=1;" parent="1" vertex="1">
                    <mxGeometry x="120" y="1280" width="120" height="180" as="geometry"/>
                </mxCell>
                <mxCell id="230" value="" style="endArrow=classic;html=1;fillColor=#1ba1e2;strokeColor=#006EAF;" parent="1" edge="1">
                    <mxGeometry relative="1" as="geometry">
                        <mxPoint x="240" y="1359.9999999999998" as="sourcePoint"/>
                        <mxPoint x="520" y="1359.9999999999998" as="targetPoint"/>
                    </mxGeometry>
                </mxCell>
                <mxCell id="231" value="?" style="edgeLabel;resizable=0;html=1;align=center;verticalAlign=middle;" parent="230" connectable="0" vertex="1">
                    <mxGeometry relative="1" as="geometry"/>
                </mxCell>
                <mxCell id="232" value="" style="endArrow=classic;html=1;fillColor=#60a917;strokeColor=#2D7600;" parent="1" edge="1">
                    <mxGeometry relative="1" as="geometry">
                        <mxPoint x="520" y="1299.3099999999997" as="sourcePoint"/>
                        <mxPoint x="240" y="1299.3099999999997" as="targetPoint"/>
                    </mxGeometry>
                </mxCell>
                <mxCell id="233" value="hSerialPort" style="edgeLabel;resizable=0;html=1;align=center;verticalAlign=middle;" parent="232" connectable="0" vertex="1">
                    <mxGeometry relative="1" as="geometry"/>
                </mxCell>
                <mxCell id="234" value="" style="endArrow=classic;html=1;fillColor=#1ba1e2;strokeColor=#006EAF;" parent="1" edge="1">
                    <mxGeometry relative="1" as="geometry">
                        <mxPoint x="240" y="1439.7599999999998" as="sourcePoint"/>
                        <mxPoint x="520" y="1439.7599999999998" as="targetPoint"/>
                    </mxGeometry>
                </mxCell>
                <mxCell id="235" value="?" style="edgeLabel;resizable=0;html=1;align=center;verticalAlign=middle;" parent="234" connectable="0" vertex="1">
                    <mxGeometry relative="1" as="geometry"/>
                </mxCell>
                <mxCell id="236" value="" style="endArrow=classic;html=1;fillColor=#60a917;strokeColor=#2D7600;" parent="1" edge="1">
                    <mxGeometry relative="1" as="geometry">
                        <mxPoint x="520" y="1399.7599999999998" as="sourcePoint"/>
                        <mxPoint x="240" y="1399.7599999999998" as="targetPoint"/>
                    </mxGeometry>
                </mxCell>
                <mxCell id="237" value="hSerialPort" style="edgeLabel;resizable=0;html=1;align=center;verticalAlign=middle;" parent="236" connectable="0" vertex="1">
                    <mxGeometry relative="1" as="geometry"/>
                </mxCell>
                <mxCell id="238" value="" style="endArrow=classic;html=1;fillColor=#60a917;strokeColor=#2D7600;" parent="1" edge="1">
                    <mxGeometry relative="1" as="geometry">
                        <mxPoint x="860.0000000000002" y="1189.9999999999998" as="sourcePoint"/>
                        <mxPoint x="640.0000000000002" y="1299.9999999999998" as="targetPoint"/>
                        <Array as="points">
                            <mxPoint x="860" y="1300"/>
                        </Array>
                    </mxGeometry>
                </mxCell>
                <mxCell id="239" value="hSerialPort" style="edgeLabel;resizable=0;html=1;align=center;verticalAlign=middle;" parent="238" connectable="0" vertex="1">
                    <mxGeometry relative="1" as="geometry">
                        <mxPoint x="-55" as="offset"/>
                    </mxGeometry>
                </mxCell>
                <mxCell id="240" value="" style="endArrow=classic;html=1;fillColor=#60a917;strokeColor=#2D7600;" parent="1" edge="1">
                    <mxGeometry relative="1" as="geometry">
                        <mxPoint x="860.0000000000002" y="1289.9999999999998" as="sourcePoint"/>
                        <mxPoint x="640.0000000000002" y="1399.9999999999998" as="targetPoint"/>
                        <Array as="points">
                            <mxPoint x="860" y="1400"/>
                        </Array>
                    </mxGeometry>
                </mxCell>
                <mxCell id="241" value="hSerialPort" style="edgeLabel;resizable=0;html=1;align=center;verticalAlign=middle;" parent="240" connectable="0" vertex="1">
                    <mxGeometry relative="1" as="geometry">
                        <mxPoint x="-55" as="offset"/>
                    </mxGeometry>
                </mxCell>
                <mxCell id="242" value="" style="endArrow=classic;html=1;fillColor=#60a917;strokeColor=#2D7600;" edge="1" parent="1">
                    <mxGeometry relative="1" as="geometry">
                        <mxPoint x="520" y="1319.8" as="sourcePoint"/>
                        <mxPoint x="240" y="1319.8" as="targetPoint"/>
                    </mxGeometry>
                </mxCell>
                <mxCell id="243" value="interval in ms" style="edgeLabel;resizable=0;html=1;align=center;verticalAlign=middle;" connectable="0" vertex="1" parent="242">
                    <mxGeometry relative="1" as="geometry">
                        <mxPoint x="1" as="offset"/>
                    </mxGeometry>
                </mxCell>
                <mxCell id="244" value="" style="endArrow=classic;html=1;fillColor=#60a917;strokeColor=#2D7600;" edge="1" parent="1">
                    <mxGeometry relative="1" as="geometry">
                        <mxPoint x="520" y="1340" as="sourcePoint"/>
                        <mxPoint x="240" y="1340" as="targetPoint"/>
                    </mxGeometry>
                </mxCell>
                <mxCell id="245" value="eventId" style="edgeLabel;resizable=0;html=1;align=center;verticalAlign=middle;" connectable="0" vertex="1" parent="244">
                    <mxGeometry relative="1" as="geometry"/>
                </mxCell>
                <mxCell id="246" value="" style="endArrow=classic;html=1;fillColor=#60a917;strokeColor=#2D7600;" edge="1" parent="1">
                    <mxGeometry relative="1" as="geometry">
                        <mxPoint x="520" y="1419.7999999999997" as="sourcePoint"/>
                        <mxPoint x="240" y="1419.7999999999997" as="targetPoint"/>
                    </mxGeometry>
                </mxCell>
                <mxCell id="247" value="eventId" style="edgeLabel;resizable=0;html=1;align=center;verticalAlign=middle;" connectable="0" vertex="1" parent="246">
                    <mxGeometry relative="1" as="geometry"/>
                </mxCell>
            </root>
        </mxGraphModel>
    </diagram>
</mxfile>